<?xml version="1.0" encoding="utf-8"?>
<svg version="1.1" xmlns="http://www.w3.org/2000/svg" xmlns:xlink="http://www.w3.org/1999/xlink" height="100.35135986204784" width="293.9954606406518">
  <defs>
    <ellipse id="ellipse-1" opacity="1" rx="37.00024243153689" ry="37.0000000004452" cx="46.99570307218869" cy="47.057951724214604"/>
    <linearGradient id="linearGradient-2" x1="0.77" y1="0.09" x2="0.5" y2="1">
      <stop offset="0" stop-color="rgb(91,249,112)" stop-opacity="1"/>
      <stop offset="1" stop-color="rgb(42,201,64)" stop-opacity="1"/>
    </linearGradient>
    <mask id="mask-3" maskUnits="userSpaceOnUse" maskContentUnits="userSpaceOnUse">
      <rect opacity="1" x="0" y="0" width="293.9954606406518" height="100.35135986204784" fill="Black"/>
      <use xlink:href="#ellipse-1" fill="White"/>
    </mask>
    <path id="path-4" opacity="1" fill-rule="evenodd" d="M14.537730968682819,24.20351874438427 C14.537730968682819,24.20351874438427 25.326069479450943,28.095317092539215 25.791490028095176,40.02302025036762 C26.256910576739408,51.95072340819604 13.202539215871184,62.810635514938895 13.202539215871184,62.810635514938895 "/>
    <path id="path-5" opacity="1" fill-rule="evenodd" d="M45.53441376875935,0.34550616614376983 C45.53441376875935,0.34550616614376983 48.13125906944497,-1.1089670760373895 52.41517190992138,29.22027184244611 C56.69908475039779,59.54951076092961 46.8769776170693,84.95108226151493 46.8769776170693,84.95108226151493 "/>
    <path id="path-6" opacity="1" fill-rule="evenodd" d="M51.441302340400995,21.0853423115434 C51.441302340400995,21.0853423115434 85.07381393432675,37.56643457819121 83.59690710607389,58.41985392925565 C82.12000027782102,79.2732732803201 51.197980728019274,75.81685277408548 51.197980728019274,75.81685277408548 "/>
    <path id="path-7" opacity="1" fill-rule="evenodd" d="M34.683492513056535,92.76277990634006 C34.683492513056535,92.76277990634006 42.795878655451645,90.24974305040678 49.20620017591594,61.12313060253514 C55.61652169638022,31.9965181546635 37.86640552654074,7.588579955707701 37.86640552654074,7.588579955707701 "/>
  </defs>
  <g opacity="1">
    <g opacity="1">
      <g opacity="1">
        <use xlink:href="#ellipse-1" fill="url(#linearGradient-2)"/>
      </g>
      <g mask="url(#mask-3)">
        <g opacity="1">
          <g opacity="1">
            <use xlink:href="#path-4" fill-opacity="0" stroke="rgb(255,255,255)" stroke-opacity="1" stroke-width="3" stroke-linecap="butt" stroke-linejoin="miter"/>
          </g>
          <g transform="translate(49.5156849339138, 42.64272399070866) rotate(273.00009761501764) translate(-49.5156849339138, -42.64272399070866)" opacity="1">
            <use xlink:href="#path-5" fill-opacity="0" stroke="rgb(255,255,255)" stroke-opacity="1" stroke-width="3" stroke-linecap="butt" stroke-linejoin="miter"/>
          </g>
          <g transform="translate(67.4210717724495, 48.55821862004954) rotate(176.0000629312934) translate(-67.4210717724495, -48.55821862004954)" opacity="1">
            <use xlink:href="#path-6" fill-opacity="0" stroke="rgb(255,255,255)" stroke-opacity="1" stroke-width="3" stroke-linecap="butt" stroke-linejoin="miter"/>
          </g>
          <g transform="translate(42.642710602695566, 50.17567993102388) rotate(175.00006257372925) translate(-42.642710602695566, -50.17567993102388)" opacity="1">
            <use xlink:href="#path-7" fill-opacity="0" stroke="rgb(255,255,255)" stroke-opacity="1" stroke-width="3" stroke-linecap="butt" stroke-linejoin="miter"/>
          </g>
        </g>
      </g>
    </g>
  </g>
</svg>